<svg xmlns="http://www.w3.org/2000/svg" width="234.976" height="44.45" viewBox="0 0 234.976 44.45">
    <defs>
        <style>
            .cls-1{fill:#fff;fill-rule:evenodd}
        </style>
    </defs>
    <g id="shoppers-shop-vector-logo" transform="translate(-20.8 -264.9)">
        <path id="Rectangle_149" d="M0 0H234.976V44.45H0z" transform="translate(20.8 264.9)"/>
        <g id="Group_2057">
            <path id="Path_9" d="M104.5 316.667h-7.835v3.525a5.635 5.635 0 0 0 .2 2.193 1.321 1.321 0 0 0 .352.862 3.082 3.082 0 0 0 1.371.157h.509v.509h-6.858v-.513h.509c.509 0 1.018 0 1.175-.157.352-.2.509-.352.509-.666a8.223 8.223 0 0 0 .157-2.35v-7.206a6.976 6.976 0 0 0-.157-2.193c0-.313-.157-.666-.352-.666a4.132 4.132 0 0 0-1.527-.157H92.2v-.505h6.814v.509h-.352c-.7 0-1.214 0-1.371.157-.352 0-.509.352-.509.666-.2.157-.2 1.018-.2 2.193v2.859h7.833v-2.859c0-1.175-.157-1.841-.157-2.193 0-.313-.157-.666-.509-.666-.157-.157-.666-.157-1.371-.157h-.352v-.509h6.658v.509h-.2a4.132 4.132 0 0 0-1.527.157c-.157 0-.352.352-.352.666a6.27 6.27 0 0 0-.157 2.193v7.206a6.975 6.975 0 0 0 .157 2.193 1.321 1.321 0 0 0 .352.862 3.177 3.177 0 0 0 1.371.157h.352v.509h-6.65v-.552h.509c.509 0 1.018 0 1.175-.157.352-.2.509-.352.509-.666 0-.352.157-1.175.157-2.35v-3.564z" class="cls-1" transform="translate(-43.438 -27.133)"/>
            <path id="Path_10" d="M152.589 323.108h.157a4.675 4.675 0 0 0 3.916-1.841 7.661 7.661 0 0 0 1.527-5.209 7.943 7.943 0 0 0-1.527-5.209 4.8 4.8 0 0 0-4.112-1.841v-.508a8.25 8.25 0 0 1 5.8 2.036 7.038 7.038 0 0 1 2.35 5.522 7.759 7.759 0 0 1-2.35 5.561 8.144 8.144 0 0 1-5.8 2v-.509zm-5.444-7.049c0 2.35.352 4.034 1.371 5.209a5.006 5.006 0 0 0 4.112 1.841v.509a8.409 8.409 0 0 1-5.8-2 7.612 7.612 0 0 1-2.228-5.718 7.342 7.342 0 0 1 2.232-5.365 8.717 8.717 0 0 1 5.8-2.036v.509a5.225 5.225 0 0 0-4.112 1.841c-1.018 1.214-1.371 2.9-1.371 5.209" class="cls-1" transform="translate(-75.317 -26.525)"/>
            <path id="Path_11" d="M202.51 316.206c.157 0 .352-.2.509-.2a2.649 2.649 0 0 0 1.371-1.018 4.244 4.244 0 0 0 .509-2.036 3.789 3.789 0 0 0-.862-2.663 2.14 2.14 0 0 0-1.527-.666V309a5.357 5.357 0 0 1 1.88.352 3.911 3.911 0 0 1 2.036 1.175 4.025 4.025 0 0 1 .862 2.35 4.426 4.426 0 0 1-.509 2.193 5.806 5.806 0 0 1-1.723 1.332 8.672 8.672 0 0 1-2.546.352zm-2.585 0h2.585v.509a2.093 2.093 0 0 1-.862.157h-1.723v3.016a5.635 5.635 0 0 0 .2 2.193 1.242 1.242 0 0 0 .352.862 3.177 3.177 0 0 0 1.371.157h.509v.509h-6.814v-.509h.509c.509 0 1.018 0 1.175-.157.352-.2.509-.352.509-.666s.157-1.175.157-2.35v-7.207c0-1.175-.157-1.841-.157-2.193 0-.313-.2-.666-.509-.666-.157-.157-.666-.157-1.371-.157h-.356v-.504l1.88-.157h5.13v.666a4.105 4.105 0 0 0-1.371-.157h-1.175v6.658z" class="cls-1" transform="translate(-106.283 -26.829)"/>
            <path id="Path_12" d="M240.81 316.206c.2 0 .352-.2.7-.2a2.321 2.321 0 0 0 1.214-1.018 4.744 4.744 0 0 0 .509-2.036c0-1.175-.157-2.193-.862-2.663a2.14 2.14 0 0 0-1.527-.666V309a5.357 5.357 0 0 1 1.88.352 3.911 3.911 0 0 1 2.036 1.175 4.025 4.025 0 0 1 .862 2.35 4.426 4.426 0 0 1-.509 2.193 3.932 3.932 0 0 1-1.527 1.332 11.12 11.12 0 0 1-2.741.352v-.548zm-2.546 0h2.546v.509a1.686 1.686 0 0 1-.862.157h-1.723v3.016a5.635 5.635 0 0 0 .2 2.193 1.426 1.426 0 0 0 .313.862 3.177 3.177 0 0 0 1.371.157h.509v.509H233.8v-.509h.509a2.514 2.514 0 0 0 1.214-.157c.352-.2.509-.352.509-.666a8.067 8.067 0 0 0 .157-2.35v-7.207a6.975 6.975 0 0 0-.157-2.193c0-.313-.157-.666-.352-.666a4.134 4.134 0 0 0-1.527-.157h-.353v-.504l1.88-.157h5.13v.666a4.105 4.105 0 0 0-1.371-.157h-1.214v6.658z" class="cls-1" transform="translate(-129.583 -26.829)"/>
            <path id="Path_13" d="M284.24 319.308h.509l-.352 4.543H272.1v-.509h.352a3.608 3.608 0 0 0 1.527-.157 1.446 1.446 0 0 0 .352-.862v-11.591c0-.313-.157-.509-.509-.666-.157-.157-.666-.157-1.332-.157v-.509h10.574l.352 3.525h-.509a5.012 5.012 0 0 0-.862-2.193c-.352-.313-.666-.666-1.175-.666a8.495 8.495 0 0 0-2.232-.157H276.6v6.031h1.567a3.356 3.356 0 0 0 1.527-.2c.352-.157.509-.313.509-.509a3.8 3.8 0 0 0 .157-1.488h.509v5.013h-.509a4.627 4.627 0 0 0-.157-1.684.743.743 0 0 0-.666-.509c-.157-.157-.7-.157-1.175-.157h-1.723v3.525a7.976 7.976 0 0 0 .361 3.019c.157.352.862.352 1.88.352h1.018a6.316 6.316 0 0 0 1.88-.157 5 5 0 0 0 1.527-1.175 9.41 9.41 0 0 0 .94-2.663" class="cls-1" transform="translate(-152.884 -27.073)"/>
            <path id="Path_14" d="M321.01 315.867a1.43 1.43 0 0 1 .7-.157 2.654 2.654 0 0 0 1.018-.509 4.646 4.646 0 0 0 .7-.979 5.07 5.07 0 0 0 .157-1.527 3.8 3.8 0 0 0-.7-2.506 4.006 4.006 0 0 0-1.88-.862v-.509a5.6 5.6 0 0 1 2.036.352 3.911 3.911 0 0 1 2.036 1.175 2.806 2.806 0 0 1 .862 2.193 3.3 3.3 0 0 1-1.018 2.35 5.262 5.262 0 0 1-3.055 1.332 15.38 15.38 0 0 1 2.9 3.172 16.247 16.247 0 0 0 2.741 2.859 3.173 3.173 0 0 0 2.232.666v.509h-3.916c-.862-.352-1.88-1.684-3.251-3.681a19.055 19.055 0 0 0-1.527-1.841v-2.036zm0 7.558zm-2.546-7.4c.666 0 1.175-.2 1.723-.2h.862v1.88l-1.018-1.018c-.157-.157-.509-.157-.862-.157h-.669v3.17a6.973 6.973 0 0 0 .157 2.193 1.242 1.242 0 0 0 .352.862 3.176 3.176 0 0 0 1.371.157h.666v.509H314v-.509h.509c.509 0 1.018 0 1.175-.157.352-.2.509-.352.509-.666a8.067 8.067 0 0 0 .157-2.35v-7.206a6.976 6.976 0 0 0-.157-2.193c0-.313-.157-.666-.352-.666a4.134 4.134 0 0 0-1.527-.157h-.157v-.509l2.036-.157c1.371 0 2.546-.157 3.407-.157.509 0 1.018.157 1.371.157v.509h-2.506z" class="cls-1" transform="translate(-178.375 -26.647)"/>
            <path id="Path_15" d="M361.1 323.425v-4.7h.509c.509 3.055 2.036 4.543 4.425 4.543a3.7 3.7 0 0 0 2.389-.862 3.378 3.378 0 0 0 .822-2 2.84 2.84 0 0 0-.822-1.841 8.388 8.388 0 0 0-2.741-1.488 14.193 14.193 0 0 1-2.546-1.332 3.5 3.5 0 0 1-1.527-1.488 3.257 3.257 0 0 1-.509-1.841 3.1 3.1 0 0 1 1.175-2.7 3.694 3.694 0 0 1 2.741-1.018 4.824 4.824 0 0 1 1.723.352 3.056 3.056 0 0 1 1.723 1.175 4.031 4.031 0 0 0 .666-1.175h.352v3.681h-.352a6.746 6.746 0 0 0-1.527-2.506 3.389 3.389 0 0 0-2.389-1.018 2.681 2.681 0 0 0-2.036.666 2.64 2.64 0 0 0-.509 1.527 2.5 2.5 0 0 0 .666 1.841 16.834 16.834 0 0 0 2.7 1.488c1.371.509 2.193 1.018 2.9 1.332a3.908 3.908 0 0 1 1.371 1.488 3.439 3.439 0 0 1 .509 2 4.072 4.072 0 0 1-1.175 3.016 4.651 4.651 0 0 1-3.407 1.175 5.283 5.283 0 0 1-4.112-1.841 3.491 3.491 0 0 0-.509 1.488h-.51z" class="cls-1" transform="translate(-207.029 -26.647)"/>
            <path id="Path_16" d="M465.709 312.768h-.509V309.4h14.49v3.368h-.47a5.911 5.911 0 0 0-.666-2.036c-.352-.313-.509-.666-.862-.822h-4.112v12.415a.942.942 0 0 0 .509.862c.157.157.666.157 1.371.157h.666v.509H468.8v-.509h.666a1.424 1.424 0 0 0 1.88-.822v-12.574h-4.073a2.177 2.177 0 0 0-.862.822 5.364 5.364 0 0 0-.7 2" class="cls-1" transform="translate(-270.361 -27.073)"/>
            <path id="Path_17" d="M518.189 323.108h.2a4.675 4.675 0 0 0 3.916-1.841 7.66 7.66 0 0 0 1.527-5.209 7.942 7.942 0 0 0-1.527-5.209 4.8 4.8 0 0 0-4.112-1.841v-.508a8.251 8.251 0 0 1 5.8 2.036 7.067 7.067 0 0 1 2.389 5.522 7.642 7.642 0 0 1-2.389 5.561 8.144 8.144 0 0 1-5.8 2zm-5.444-7.049a8.62 8.62 0 0 0 1.371 5.209 5.006 5.006 0 0 0 4.112 1.841v.509a8.41 8.41 0 0 1-5.8-2 7.612 7.612 0 0 1-2.228-5.718 6.911 6.911 0 0 1 2.389-5.365 8.032 8.032 0 0 1 5.639-2.036v.509a5.225 5.225 0 0 0-4.112 1.841 8.516 8.516 0 0 0-1.371 5.209" class="cls-1" transform="translate(-297.738 -26.525)"/>
            <path id="Path_18" d="M569.093 316.206c.352 0 .509-.2.666-.2a2.649 2.649 0 0 0 1.371-1.018 4.244 4.244 0 0 0 .509-2.036 3.789 3.789 0 0 0-.862-2.663 2.922 2.922 0 0 0-1.723-.666V309a5.6 5.6 0 0 1 2.036.352 3.911 3.911 0 0 1 2.036 1.175 3.833 3.833 0 0 1 .666 2.35 4.426 4.426 0 0 1-.509 2.193 3.932 3.932 0 0 1-1.527 1.332 9.165 9.165 0 0 1-2.741.352v-.548zm-2.389 0h2.389v.509a1.422 1.422 0 0 1-.862.157h-1.567v5.209c.157.352.157.666.509.862a2.81 2.81 0 0 0 1.371.157h.509v.509H562.2v-.509h.352a2.981 2.981 0 0 0 1.332-.157 3.272 3.272 0 0 0 .509-.666v-11.75c-.2-.313-.352-.666-.509-.666-.157-.157-.666-.157-1.332-.157h-.352v-.504l1.88-.157h4.935v.666a3.671 3.671 0 0 0-1.371-.157h-1.018v6.658z" class="cls-1" transform="translate(-329.373 -26.829)"/>
            <path id="Path_19" d="M49.1 315.564v-6.188h.666c.7 4.034 2.741 6.031 5.8 6.031a4.752 4.752 0 0 0 3.251-1.018 3.534 3.534 0 0 0 1.214-2.7 3.968 3.968 0 0 0-.862-2.859 17.346 17.346 0 0 0-3.76-2 31.9 31.9 0 0 1-3.564-1.684 4.181 4.181 0 0 1-2.076-1.841 5.015 5.015 0 0 1-.669-2.505 4.275 4.275 0 0 1 1.527-3.368 4.556 4.556 0 0 1 3.6-1.332 5.213 5.213 0 0 1 2.389.352 6.884 6.884 0 0 1 2.389 1.684 3.467 3.467 0 0 0 .7-1.684h.509v5.013h-.509a7.09 7.09 0 0 0-1.88-3.525 4.967 4.967 0 0 0-3.407-1.332 3.245 3.245 0 0 0-2.546 1.018 2.806 2.806 0 0 0-.862 2.193 3.556 3.556 0 0 0 1.018 2.506 14.671 14.671 0 0 0 3.76 2c1.723.822 2.9 1.332 3.76 1.841a6.955 6.955 0 0 1 1.88 1.841 4.343 4.343 0 0 1 .7 2.506 4.91 4.91 0 0 1-1.723 4.034 6.983 6.983 0 0 1-9.908-.822 2.914 2.914 0 0 0-.7 1.841h-.7z" class="cls-1" transform="translate(-17.217 -18.981)"/>
            <path id="Path_20" d="M423.739 315.564v-6.188h.7c.666 4.034 2.741 6.031 5.8 6.031a4.752 4.752 0 0 0 3.251-1.018 2.907 2.907 0 0 0 1.018-2.7c0-1.018 0-2.193-.7-2.859a17.345 17.345 0 0 0-3.76-2c-1.527-.666-2.7-1.175-3.6-1.684a4.089 4.089 0 0 1-2.036-1.841 4.7 4.7 0 0 1-.7-2.506 4.192 4.192 0 0 1 1.567-3.368 4.849 4.849 0 0 1 3.76-1.332 4.954 4.954 0 0 1 2.232.352 6.884 6.884 0 0 1 2.389 1.684 3.467 3.467 0 0 0 .7-1.684h.352v5.013h-.352a7.09 7.09 0 0 0-1.88-3.525 4.879 4.879 0 0 0-3.25-1.332 3.517 3.517 0 0 0-2.741 1.018 2.806 2.806 0 0 0-.862 2.193 3.734 3.734 0 0 0 1.018 2.506 15.415 15.415 0 0 0 3.76 2c1.723.822 2.9 1.332 3.76 1.841a8.792 8.792 0 0 1 1.723 1.841 4.343 4.343 0 0 1 .7 2.506 4.91 4.91 0 0 1-1.723 4.034 5.768 5.768 0 0 1-4.269 1.684 6.88 6.88 0 0 1-5.483-2.506 4.215 4.215 0 0 0-.666 1.841h-.7z" class="cls-1" transform="translate(-245.113 -18.981)"/>
        </g>
    </g>
</svg>
